<?xml version="1.0" encoding="utf-8"?>
<!-- Generator: Adobe Illustrator 23.0.1, SVG Export Plug-In . SVG Version: 6.00 Build 0)  -->
<svg version="1.1" id="Layer_1" xmlns="http://www.w3.org/2000/svg" xmlns:xlink="http://www.w3.org/1999/xlink" x="0px" y="0px"
	 viewBox="0 0 50 50" style="enable-background:new 0 0 50 50;" xml:space="preserve">
<style type="text/css">
	.st0{fill:#AFACC7;}
</style>
<g>
	<path class="st0" d="M31.6,27.3c4.7-2.4,7.8-7.3,7.8-12.8C39.5,6.5,33,0,25,0S10.5,6.5,10.5,14.5c0,5.6,3.2,10.4,7.8,12.8
		C9.3,30.2,2.6,38.7,2.6,48.7V50h44.7v-1.3C47.4,38.7,40.7,30.2,31.6,27.3z M13.2,14.5c0-6.5,5.3-11.8,11.8-11.8s11.8,5.3,11.8,11.8
		S31.5,26.3,25,26.3S13.2,21,13.2,14.5z M5.3,47.4C6,37.1,14.6,28.9,25,28.9s19,8.2,19.7,18.4H5.3z"/>
</g>
</svg>
