<?xml version="1.0" encoding="utf-8"?>
<!-- Generator: Adobe Illustrator 23.0.1, SVG Export Plug-In . SVG Version: 6.00 Build 0)  -->
<svg version="1.1" id="Layer_1" xmlns="http://www.w3.org/2000/svg" xmlns:xlink="http://www.w3.org/1999/xlink" x="0px" y="0px"
	 viewBox="0 0 50 50" style="enable-background:new 0 0 50 50;" xml:space="preserve">
<style type="text/css">
	.st0{fill:#AFACC7;}
</style>
<g>
	<path class="st0" d="M34.8,10.9V0H15.2v10.9H0V50h50V10.9H34.8z M17.4,2.2h15.2v8.7H17.4V2.2z M47.8,13v11.1L30.3,28
		c-0.6-2.4-2.7-4.1-5.3-4.1s-4.7,1.8-5.3,4.1L2.2,24.1V13H47.8z M28.3,29.3c0,1.8-1.5,3.3-3.3,3.3s-3.3-1.5-3.3-3.3s1.5-3.3,3.3-3.3
		S28.3,27.6,28.3,29.3z M2.2,47.8V26.4l17.5,3.9c0.4,2.6,2.7,4.5,5.3,4.5s4.9-2,5.3-4.5l17.5-3.9v21.5H2.2z"/>
</g>
</svg>
