<?xml version="1.0" encoding="utf-8"?>
<!-- Generator: Adobe Illustrator 23.0.1, SVG Export Plug-In . SVG Version: 6.00 Build 0)  -->
<svg version="1.1" id="Layer_1" xmlns="http://www.w3.org/2000/svg" xmlns:xlink="http://www.w3.org/1999/xlink" x="0px" y="0px"
	 viewBox="0 0 50 50" style="enable-background:new 0 0 50 50;" xml:space="preserve">
<style type="text/css">
	.st0{fill:#AFACC7;}
</style>
<g>
	<g>
		<path class="st0" d="M25,10.7c-4.1,0-7.5,3.4-7.5,7.5s3.4,7.5,7.5,7.5s7.5-3.4,7.5-7.5S29.1,10.7,25,10.7z M25,23.6
			c-3,0-5.4-2.4-5.4-5.4s2.4-5.4,5.4-5.4s5.4,2.4,5.4,5.4S28,23.6,25,23.6z"/>
		<path class="st0" d="M25,0C14.9,0,6.7,8.2,6.7,18.3C6.7,28,23.5,48.2,24.2,49l0.8,1l0.8-1c0.7-0.9,17.4-21,17.4-30.8
			C43.3,8.2,35.1,0,25,0z M25,46.6C21.6,42.4,8.9,26.1,8.9,18.3C8.9,9.4,16.1,2.1,25,2.1s16.1,7.2,16.1,16.1
			C41.1,26.1,28.4,42.4,25,46.6z"/>
	</g>
</g>
</svg>
