<?xml version="1.0" encoding="utf-8"?>
<!-- Generator: Adobe Illustrator 23.0.1, SVG Export Plug-In . SVG Version: 6.00 Build 0)  -->
<svg version="1.1" id="Layer_1" xmlns="http://www.w3.org/2000/svg" xmlns:xlink="http://www.w3.org/1999/xlink" x="0px" y="0px"
	 viewBox="0 0 50 50" style="enable-background:new 0 0 50 50;" xml:space="preserve">
<style type="text/css">
	.st0{fill:#AFACC7;}
	.st1{fill:#FFFFFF;}
</style>
<g>
	<circle class="st0" cx="25" cy="25" r="25"/>
	<g>
		<path class="st1" d="M23.6,27.9c0-0.3-0.1-0.5-0.1-0.8c0-1.1,0.5-2.1,1.6-3l1-0.7c0.6-0.5,0.9-1,0.9-1.6c0-0.9-0.7-1.8-2-1.8
			c-1.5,0-2.1,1.2-2.1,2.3c0,0.2,0,0.5,0.1,0.7l-2.6-0.1c-0.1-0.3-0.1-0.6-0.1-0.9c0-2.2,1.7-4.3,4.7-4.3c3.2,0,4.8,2,4.8,4.1
			c0,1.6-0.8,2.8-2,3.6l-0.8,0.6c-0.7,0.5-1.1,1.1-1.1,2v0.1H23.6z M24.7,29.2c0.9,0,1.6,0.7,1.6,1.6c0,0.9-0.7,1.6-1.6,1.6
			c-0.9,0-1.6-0.7-1.6-1.6C23.1,30,23.8,29.2,24.7,29.2z"/>
	</g>
</g>
</svg>
